ply
format ascii 1.0
element vertex 13
property float x
property float y
property float z
property uchar diffuse_red
property uchar diffuse_green
property uchar diffuse_blue
end_header
-0.0959151 -0.00848738 -0.246161 255 0 255
-0.682192 0.00413085 -0.85263 0 255 0
-0.683311 -0.000311998 -0.855176 0 255 0
-0.534297 0.0115656 -0.862488 255 0 255
-0.837551 -0.000370751 -0.890528 255 0 255
-0.857336 -0.00449127 -0.891496 255 0 255
-0.680753 -0.000812302 -0.85746 0 255 0
-0.282259 -0.0250563 -0.159407 255 0 255
-0.502042 0.0179992 -0.908272 255 0 255
0.280836 -0.0161487 -0.0569079 255 0 255
-0.0904144 0.00204592 -0.270345 0 255 0
0.296537 -0.0396204 -0.023825 255 0 255
-0.27371 -0.102056 -0.170905 255 0 255
